<?xml version="1.0" encoding="UTF-8"?>
<svg id="Layer_1" data-name="Layer 1" xmlns="http://www.w3.org/2000/svg" viewBox="0 0 1417.32 1346.83">
  <defs>
    <style>
      .cls-1 {
        fill: #fff;
      }
    </style>
  </defs>
  <path class="cls-1" d="M1059.12,1140.89l-154.79-154.79,29.48-29.48c124.17-124.17,124.17-326.23,0-450.41-60.16-60.15-140.14-93.28-225.2-93.28s-165.05,33.13-225.2,93.28c-60.16,60.16-93.28,140.14-93.28,225.2s33.12,165.05,93.28,225.2l29.49,29.48-154.8,154.79-29.48-29.48c-101.51-101.5-157.41-236.44-157.41-379.99s55.89-278.49,157.41-379.99c101.5-101.51,236.44-157.4,379.99-157.4s278.49,55.89,379.99,157.4c101.51,101.5,157.41,236.45,157.41,379.99s-55.89,278.49-157.41,379.99l-29.48,29.48ZM1020.73,984.58l37.07,37.07c67.88-81.36,104.83-182.95,104.83-290.23,0-121.27-47.22-235.29-132.98-321.04-85.76-85.75-199.78-132.97-321.04-132.97s-235.28,47.22-321.04,132.97c-85.76,85.75-132.98,199.77-132.98,321.04,0,107.27,36.95,208.86,104.83,290.23l37.05-37.04c-58.14-71.39-89.73-159.86-89.73-253.19,0-107.34,41.8-208.26,117.71-284.17,75.9-75.9,176.81-117.7,284.16-117.7s208.26,41.8,284.16,117.7c146.73,146.74,156.04,379.65,27.97,537.32Z"/>
  <path class="cls-1" d="M708.61,987.87c-141.28,0-256.22-114.94-256.22-256.23s114.94-256.23,256.22-256.23,256.22,114.94,256.22,256.23-114.94,256.23-256.22,256.23ZM708.61,558.8c-95.3,0-172.84,77.54-172.84,172.85s77.54,172.85,172.84,172.85,172.84-77.54,172.84-172.85-77.54-172.85-172.84-172.85Z"/>
  <path class="cls-1" d="M438.61,1285.67h-233.34v-83.38h198.81l93.94-93.94c118.63-118.63,311.7-118.66,430.33,0l91.68,91.68h193.36v83.38h-227.89l-116.1-116.1c-86.15-86.15-226.3-86.12-312.42,0l-118.36,118.36Z"/>
  <path class="cls-1" d="M205.18,1171.25C-15.38,911.67-12.13,529.14,212.74,281.45c125.54-138.27,297.19-216.46,483.33-220.16,185.72-3.61,360.71,67.4,491.34,200.24,117.69,119.7,184.41,279.51,187.87,449.99,3.39,167.57-54.08,330.75-161.84,459.5l-63.95-53.53c196.65-234.92,187.19-585.23-21.54-797.5-114.38-116.32-267.38-178.64-430.22-175.34-162.98,3.25-313.3,71.73-423.26,192.85-196.8,216.77-199.27,552-5.75,779.77l-63.55,53.98Z"/>
</svg>
