<?xml version="1.0" encoding="UTF-8"?>
<svg xmlns="http://www.w3.org/2000/svg" xmlns:xlink="http://www.w3.org/1999/xlink" width="288" height="37.945" viewBox="0 0 288 37.945">
  <g id="Group_72" data-name="Group 72" transform="translate(0 0)">
    <g id="Group_71" data-name="Group 71" transform="translate(0 0)">
      <path id="Path_122" data-name="Path 122" d="M6.167,31.006a6.249,6.249,0,0,1-2.415-.468A6.031,6.031,0,0,1,0,24.906a5.873,5.873,0,0,1,.484-2.39,5.993,5.993,0,0,1,1.346-1.93A6.176,6.176,0,0,1,3.843,19.3a6.63,6.63,0,0,1,2.474-.46,6.751,6.751,0,0,1,2.766.552,5.664,5.664,0,0,1,2.064,1.521L9.359,22.7a3.706,3.706,0,0,0-1.337-1.1,3.973,3.973,0,0,0-1.738-.368,3.719,3.719,0,0,0-1.855.46A3.257,3.257,0,0,0,3.15,22.976a3.907,3.907,0,0,0-.46,1.93,4.017,4.017,0,0,0,.451,1.938,3.312,3.312,0,0,0,1.237,1.3,3.461,3.461,0,0,0,1.8.468,3.668,3.668,0,0,0,1.763-.392,2.685,2.685,0,0,0,1.12-1.137,3.837,3.837,0,0,0,.393-1.813l1.738,1.17L5.933,26.36V24.137h6.2v.384a7.6,7.6,0,0,1-.76,3.568,5.143,5.143,0,0,1-2.106,2.181,6.358,6.358,0,0,1-3.1.735" transform="translate(0 -4.057)" fill="#0d4d5e"></path>
      <path id="Path_123" data-name="Path 123" d="M18.764,19.074h2.624v11.8H18.764Zm2.022,9.493h5.832v2.306H20.786Z" transform="translate(-4.041 -4.107)" fill="#0d4d5e"></path>
      <path id="Path_124" data-name="Path 124" d="M36.628,31.019a6.365,6.365,0,0,1-2.465-.468,6.178,6.178,0,0,1-1.98-1.3A5.919,5.919,0,0,1,30.862,27.3a6.406,6.406,0,0,1,0-4.805,5.938,5.938,0,0,1,3.267-3.217,6.793,6.793,0,0,1,4.914,0,6.046,6.046,0,0,1,1.973,1.287A5.89,5.89,0,0,1,42.327,22.5a6.426,6.426,0,0,1,0,4.813,5.954,5.954,0,0,1-1.3,1.939A6.051,6.051,0,0,1,39.06,30.55a6.28,6.28,0,0,1-2.432.468m-.034-2.39a3.575,3.575,0,0,0,1.847-.468,3.178,3.178,0,0,0,1.228-1.312A4.2,4.2,0,0,0,40.1,24.9a4.326,4.326,0,0,0-.251-1.512,3.392,3.392,0,0,0-.718-1.17,3.13,3.13,0,0,0-1.112-.752,3.8,3.8,0,0,0-1.429-.259,3.614,3.614,0,0,0-1.846.46,3.143,3.143,0,0,0-1.229,1.287,4.133,4.133,0,0,0-.435,1.947,4.4,4.4,0,0,0,.251,1.521,3.426,3.426,0,0,0,.71,1.179,3.11,3.11,0,0,0,1.111.76,3.755,3.755,0,0,0,1.438.268" transform="translate(-6.545 -4.052)" fill="#0d4d5e"></path>
      <path id="Path_125" data-name="Path 125" d="M49.6,19.074H52.2v11.8H49.6Zm2.006,11.8V28.834h2.775a1.589,1.589,0,0,0,1.2-.451,1.53,1.53,0,0,0,.435-1.1,1.586,1.586,0,0,0-.2-.8,1.443,1.443,0,0,0-.559-.552,1.781,1.781,0,0,0-.877-.2H51.611V23.736h2.557a1.618,1.618,0,0,0,1.053-.326,1.207,1.207,0,0,0,.4-.994,1.186,1.186,0,0,0-.4-.978,1.618,1.618,0,0,0-1.053-.326H51.611V19.074h3.059a4.113,4.113,0,0,1,1.93.417,2.936,2.936,0,0,1,1.629,2.674,2.6,2.6,0,0,1-.7,1.838,3.811,3.811,0,0,1-2.072,1.037l.067-.886a4.087,4.087,0,0,1,2.3,1.153,3.023,3.023,0,0,1,.811,2.14,3.226,3.226,0,0,1-1.847,2.975,4.724,4.724,0,0,1-2.148.451Z" transform="translate(-10.682 -4.107)" fill="#0d4d5e"></path>
      <path id="Path_126" data-name="Path 126" d="M63.407,30.873l4.68-11.8H70.46l4.63,11.8H72.315L68.772,21.08h.953l-3.593,9.793Zm2.658-4.279H72.5v2.139H66.065Z" transform="translate(-13.654 -4.107)" fill="#0d4d5e"></path>
      <path id="Path_127" data-name="Path 127" d="M81.17,19.074h2.624v11.8H81.17Zm2.023,9.493h5.832v2.306H83.193Z" transform="translate(-17.479 -4.107)" fill="#0d4d5e"></path>
      <path id="Path_128" data-name="Path 128" d="M98.188,19.074H108.2v2.29H98.188Zm3.693.167h2.624V30.873h-2.624Z" transform="translate(-21.144 -4.107)" fill="#0d4d5e"></path>
      <rect id="Rectangle_46" data-name="Rectangle 46" width="2.624" height="11.799" transform="translate(89.528 14.967)" fill="#0d4d5e"></rect>
      <path id="Path_129" data-name="Path 129" d="M121.617,19.074h2.624v11.8h-2.624Zm2.006,7.5V24.538h2.54a1.954,1.954,0,0,0,.886-.2,1.529,1.529,0,0,0,.636-.585,1.771,1.771,0,0,0,.234-.935,1.741,1.741,0,0,0-.234-.92,1.533,1.533,0,0,0-.636-.585,1.945,1.945,0,0,0-.886-.2h-2.54V19.074h2.924a4.449,4.449,0,0,1,2.022.451A3.5,3.5,0,0,1,130,20.82a4.052,4.052,0,0,1,0,3.995,3.549,3.549,0,0,1-1.43,1.3,4.383,4.383,0,0,1-2.022.46Z" transform="translate(-26.189 -4.107)" fill="#0d4d5e"></path>
      <path id="Path_130" data-name="Path 130" d="M136.122,19.074h2.624v11.8h-2.624Zm2.006,7.5V24.538h2.54a1.955,1.955,0,0,0,.886-.2,1.53,1.53,0,0,0,.636-.585,1.771,1.771,0,0,0,.234-.935,1.741,1.741,0,0,0-.234-.92,1.533,1.533,0,0,0-.636-.585,1.945,1.945,0,0,0-.886-.2h-2.54V19.074h2.924a4.449,4.449,0,0,1,2.022.451,3.5,3.5,0,0,1,1.43,1.295,4.052,4.052,0,0,1,0,3.995,3.55,3.55,0,0,1-1.43,1.3,4.383,4.383,0,0,1-2.022.46Z" transform="translate(-29.312 -4.107)" fill="#0d4d5e"></path>
      <rect id="Rectangle_47" data-name="Rectangle 47" width="2.624" height="11.799" transform="translate(118.19 14.967)" fill="#0d4d5e"></rect>
      <path id="Path_131" data-name="Path 131" d="M158.145,30.873v-11.8h1.838l.785,2.356v9.443Zm8.139,0-6.952-8.907.651-2.891,6.953,8.907Zm0,0-.7-2.356V19.074h2.624v11.8Z" transform="translate(-34.055 -4.107)" fill="#0d4d5e"></path>
      <path id="Path_132" data-name="Path 132" d="M180.542,31.006a6.249,6.249,0,0,1-2.415-.468,6.031,6.031,0,0,1-3.751-5.632,5.873,5.873,0,0,1,.484-2.39,5.993,5.993,0,0,1,1.346-1.93,6.176,6.176,0,0,1,2.013-1.287,6.63,6.63,0,0,1,2.474-.46,6.751,6.751,0,0,1,2.766.552,5.664,5.664,0,0,1,2.064,1.521L183.734,22.7a3.706,3.706,0,0,0-1.337-1.1,3.973,3.973,0,0,0-1.738-.368,3.719,3.719,0,0,0-1.855.46,3.257,3.257,0,0,0-1.278,1.287,3.907,3.907,0,0,0-.46,1.93,4.017,4.017,0,0,0,.451,1.938,3.312,3.312,0,0,0,1.237,1.3,3.461,3.461,0,0,0,1.8.468,3.668,3.668,0,0,0,1.763-.392,2.685,2.685,0,0,0,1.12-1.137,3.837,3.837,0,0,0,.393-1.813l1.738,1.17-5.264-.083V24.137h6.2v.384a7.6,7.6,0,0,1-.76,3.568,5.143,5.143,0,0,1-2.106,2.181,6.358,6.358,0,0,1-3.1.735" transform="translate(-37.55 -4.057)" fill="#0d4d5e"></path>
      <path id="Path_133" data-name="Path 133" d="M198.464,19.074h2.623v11.8h-2.623Zm2.006,7.5V24.538h2.54a1.949,1.949,0,0,0,.885-.2,1.52,1.52,0,0,0,.636-.585,1.772,1.772,0,0,0,.234-.935,1.741,1.741,0,0,0-.234-.92,1.523,1.523,0,0,0-.636-.585,1.939,1.939,0,0,0-.885-.2h-2.54V19.074h2.924a4.451,4.451,0,0,1,2.022.451,3.506,3.506,0,0,1,1.43,1.295,4.057,4.057,0,0,1,0,3.995,3.559,3.559,0,0,1-1.43,1.3,4.385,4.385,0,0,1-2.022.46Z" transform="translate(-42.737 -4.107)" fill="#0d4d5e"></path>
      <path id="Path_134" data-name="Path 134" d="M218.584,31.019a6.365,6.365,0,0,1-2.465-.468,6.179,6.179,0,0,1-1.98-1.3,5.919,5.919,0,0,1-1.321-1.947,6.406,6.406,0,0,1,0-4.805,5.938,5.938,0,0,1,3.267-3.217,6.793,6.793,0,0,1,4.914,0,6.046,6.046,0,0,1,1.973,1.287,5.89,5.89,0,0,1,1.312,1.939,6.426,6.426,0,0,1,0,4.813,5.954,5.954,0,0,1-1.3,1.939,6.051,6.051,0,0,1-1.963,1.295,6.28,6.28,0,0,1-2.432.468m-.034-2.39a3.575,3.575,0,0,0,1.847-.468,3.178,3.178,0,0,0,1.228-1.312,4.2,4.2,0,0,0,.435-1.948,4.326,4.326,0,0,0-.251-1.512,3.391,3.391,0,0,0-.718-1.17,3.13,3.13,0,0,0-1.112-.752,3.8,3.8,0,0,0-1.429-.259,3.614,3.614,0,0,0-1.846.46,3.143,3.143,0,0,0-1.229,1.287,4.133,4.133,0,0,0-.435,1.947,4.4,4.4,0,0,0,.251,1.521A3.426,3.426,0,0,0,216,27.6a3.111,3.111,0,0,0,1.111.76,3.755,3.755,0,0,0,1.437.268" transform="translate(-45.727 -4.052)" fill="#0d4d5e"></path>
      <rect id="Rectangle_48" data-name="Rectangle 48" width="2.624" height="11.799" transform="translate(181.697 14.967)" fill="#0d4d5e"></rect>
      <path id="Path_135" data-name="Path 135" d="M239.081,30.873v-11.8h1.838l.785,2.356v9.443Zm8.139,0-6.952-8.907.651-2.891,6.953,8.907Zm0,0-.7-2.356V19.074h2.624v11.8Z" transform="translate(-51.484 -4.107)" fill="#0d4d5e"></path>
      <path id="Path_136" data-name="Path 136" d="M255.055,19.074h10.011v2.29H255.055Zm3.693.167h2.624V30.873h-2.624Z" transform="translate(-54.924 -4.107)" fill="#0d4d5e"></path>
      <path id="Path_137" data-name="Path 137" d="M273.482,31.006a5.981,5.981,0,0,1-2.5-.476,5.819,5.819,0,0,1-1.914-1.445l1.7-1.689a4.291,4.291,0,0,0,1.263,1.011,3.459,3.459,0,0,0,1.612.359,2.363,2.363,0,0,0,1.3-.3.948.948,0,0,0,.459-.836,1.063,1.063,0,0,0-.3-.786,2.6,2.6,0,0,0-.794-.518q-.493-.217-1.086-.417t-1.179-.46a4.888,4.888,0,0,1-1.077-.652,2.92,2.92,0,0,1-.794-.986,3.33,3.33,0,0,1,1.688-4.563,5.333,5.333,0,0,1,2.156-.41,5.765,5.765,0,0,1,2.265.435,4.658,4.658,0,0,1,1.7,1.186l-1.705,1.688a3.993,3.993,0,0,0-1.078-.818,2.747,2.747,0,0,0-1.228-.268,1.985,1.985,0,0,0-1.087.259.833.833,0,0,0-.4.744.94.94,0,0,0,.3.727,2.617,2.617,0,0,0,.794.476q.493.2,1.087.4a12.373,12.373,0,0,1,1.178.468,4.806,4.806,0,0,1,1.078.677,3.033,3.033,0,0,1,.794,1.036,3.567,3.567,0,0,1,.3,1.546,3.2,3.2,0,0,1-1.2,2.649,5.191,5.191,0,0,1-3.325.961" transform="translate(-57.942 -4.057)" fill="#0d4d5e"></path>
      <path id="Path_138" data-name="Path 138" d="M331.919,34.592l-4.8-4.8.913-.913a9.869,9.869,0,1,0-13.958,0l.913.913-4.8,4.8-.913-.913a16.653,16.653,0,1,1,23.55,0Zm-1.19-4.844,1.148,1.148a14.069,14.069,0,1,0-21.64,0l1.148-1.148a12.453,12.453,0,1,1,19.344,0" transform="translate(-65.552 -1.132)" fill="#009cb4"></path>
      <path id="Path_139" data-name="Path 139" d="M323.447,32.24a7.94,7.94,0,1,1,7.939-7.939,7.948,7.948,0,0,1-7.939,7.939m0-13.3A5.356,5.356,0,1,0,328.8,24.3a5.363,5.363,0,0,0-5.355-5.356" transform="translate(-67.941 -3.523)" fill="#009cb4"></path>
      <path id="Path_140" data-name="Path 140" d="M312.978,46.094h-7.231V43.51h6.161l2.911-2.91a9.439,9.439,0,0,1,13.335,0l2.84,2.841h5.992v2.584h-7.062l-3.6-3.6a6.855,6.855,0,0,0-9.681,0Z" transform="translate(-65.84 -8.149)" fill="#009cb4"></path>
      <path id="Path_141" data-name="Path 141" d="M304.356,34.4a20.947,20.947,0,0,1,.235-27.574,20.766,20.766,0,0,1,30.2-.617c7.39,7.515,7.745,19.9.807,28.183l-1.981-1.658c6.094-7.279,5.8-18.135-.668-24.713a18.183,18.183,0,0,0-26.447.541,18.357,18.357,0,0,0-.178,24.164Z" transform="translate(-64.45 0)" fill="#009cb4"></path>
    </g>
  </g>
</svg>
