<?xml version="1.0" encoding="UTF-8"?>
<svg id="Layer_1" data-name="Layer 1" xmlns="http://www.w3.org/2000/svg" viewBox="0 0 283.46 283.46">
  <defs>
    <style>
      .cls-1 {
        fill: #fff;
      }
    </style>
  </defs>
  <path class="cls-1" d="M141.73,8.3C68.16,8.3,8.3,68.15,8.3,141.73s59.86,133.44,133.43,133.44,133.43-59.86,133.43-133.44S215.31,8.3,141.73,8.3ZM177.62,231.6v-51.8l9.5-9.5-3.64-3.64-5.86,5.86v-5.24h-5.15v66.2c-9.67,3.25-19.99,5.03-30.74,5.03-1.08,0-2.14-.05-3.21-.08v-47.52l7.33-7.33-2.81-2.8-4.52,4.52v-4.04h-3.97v12.56l-4.52-4.52-2.81,2.81,7.33,7.33v38.78c-10.97-.81-21.44-3.44-31.1-7.61v-41.01h-3.35v10.5l-1.81-1.81-2.37,2.37,4.18,4.18v24.25c-7.95-3.8-15.29-8.67-21.86-14.4v-65.19l5.77-5.78-2.21-2.21-3.56,3.56v-3.18h-3.13v9.9l-3.56-3.56-2.21,2.21,5.78,5.78v55.63c-18.56-17.65-30.17-42.54-30.17-70.12,0-53.37,43.42-96.79,96.79-96.79s96.79,43.42,96.79,96.79c0,40.69-25.26,75.58-60.91,89.87Z"/>
  <path class="cls-1" d="M166.48,164.56c1.47-2.83,1.46-6.31-.19-9.16-1.65-2.85-4.65-4.6-7.83-4.74-.14-3.18-1.89-6.19-4.74-7.83-2.85-1.64-6.33-1.66-9.15-.19-1.72-2.69-4.73-4.41-8.02-4.41s-6.31,1.73-8.02,4.41c-.82-.43-1.7-.69-2.59-.86v-26.48l4.15-4.15-1.59-1.59-2.56,2.56v-2.28h-2.24v7.11l-2.56-2.56-1.59,1.59,4.15,4.15v21.48c-1.49.07-2.97.45-4.32,1.23-2.85,1.64-4.6,4.65-4.74,7.83-3.19.14-6.19,1.89-7.84,4.74-1.64,2.85-1.66,6.33-.19,9.16-2.69,1.72-4.41,4.73-4.41,8.02s1.73,6.31,4.41,8.02c-1.47,2.83-1.45,6.31.19,9.16,1.65,2.85,4.65,4.6,7.84,4.74.14,3.18,1.89,6.19,4.74,7.84,1.47.85,3.11,1.26,4.74,1.26,2.4,0,4.78-.9,6.59-2.63l-2.75-2.87c-1.76,1.69-4.48,2.02-6.6.8-2.12-1.22-3.19-3.73-2.61-6.11l.78-3.17-3.18.77c-2.38.59-4.89-.49-6.11-2.61-1.23-2.12-.9-4.83.79-6.6l2.27-2.36-3.14-.92c-2.35-.68-3.98-2.87-3.98-5.32s1.64-4.63,3.99-5.32l3.14-.92-2.26-2.36c-1.69-1.77-2.02-4.48-.79-6.6,1.22-2.12,3.73-3.2,6.11-2.61l3.18.78-.78-3.18c-.58-2.37.49-4.89,2.61-6.11,2.12-1.23,4.83-.9,6.6.79l2.36,2.26.92-3.14c.68-2.35,2.87-3.99,5.32-3.99s4.63,1.64,5.31,3.98l.92,3.14,2.36-2.26c1.76-1.69,4.48-2.02,6.6-.79,2.12,1.22,3.19,3.73,2.61,6.11l-.78,3.18,3.18-.78c2.38-.59,4.88.49,6.11,2.61,1.23,2.12.9,4.83-.79,6.6l-2.26,2.36,3.14.92c2.35.68,3.99,2.87,3.99,5.32s-1.64,4.64-3.99,5.32l-3.14.92,2.27,2.36c1.69,1.77,2.02,4.48.79,6.6-1.22,2.12-3.73,3.19-6.11,2.61l-3.18-.78.78,3.18c.58,2.37-.49,4.88-2.61,6.11-2.12,1.22-4.83.89-6.6-.8l-2.75,2.87c3.03,2.9,7.69,3.46,11.33,1.37,2.85-1.65,4.6-4.65,4.74-7.84,3.18-.14,6.19-1.89,7.83-4.74,1.64-2.85,1.66-6.33.19-9.16,2.68-1.72,4.41-4.73,4.41-8.02s-1.73-6.3-4.41-8.02Z"/>
  <path class="cls-1" d="M103.74,135.06c0-2.59-1.36-4.97-3.48-6.32,1.16-2.23,1.15-4.97-.15-7.21-1.3-2.24-3.66-3.62-6.17-3.73-.11-2.51-1.49-4.87-3.73-6.17-2.24-1.3-4.98-1.31-7.21-.15-1.35-2.11-3.73-3.47-6.32-3.47s-4.97,1.36-6.32,3.48c-2.23-1.16-4.97-1.15-7.21.15-2.25,1.3-3.62,3.66-3.74,6.17-2.51.11-4.87,1.49-6.17,3.73-1.3,2.24-1.3,4.98-.15,7.21-2.12,1.35-3.48,3.73-3.48,6.32s1.36,4.97,3.48,6.32c-1.16,2.23-1.15,4.97.15,7.21,1.3,2.24,3.66,3.62,6.17,3.73.11,2.51,1.49,4.87,3.73,6.17,2.87,1.66,6.54,1.22,8.92-1.07l-2.16-2.26c-1.39,1.33-3.53,1.59-5.2.62-1.67-.96-2.52-2.94-2.06-4.81l.61-2.5-2.5.61c-1.87.47-3.85-.39-4.81-2.06-.96-1.67-.71-3.8.63-5.2l1.78-1.86-2.47-.72c-1.85-.54-3.14-2.26-3.14-4.19s1.29-3.65,3.14-4.19l2.47-.72-1.78-1.86c-1.33-1.39-1.59-3.53-.63-5.2.96-1.67,2.95-2.52,4.81-2.06l2.5.61-.61-2.5c-.46-1.87.39-3.85,2.06-4.81,1.67-.96,3.8-.71,5.2.63l1.86,1.78.72-2.47c.54-1.85,2.26-3.14,4.19-3.14s3.65,1.29,4.19,3.14l.72,2.48,1.86-1.78c1.39-1.33,3.53-1.59,5.2-.62,1.67.96,2.51,2.94,2.06,4.81l-.61,2.5,2.5-.61c1.87-.47,3.85.39,4.81,2.06.96,1.67.71,3.8-.63,5.2l-1.78,1.86,2.47.72c1.85.54,3.14,2.26,3.14,4.19s-1.29,3.65-3.14,4.19l-2.47.72,1.78,1.86c1.33,1.39,1.59,3.53.63,5.2-.96,1.67-2.94,2.53-4.81,2.06l-2.5-.61.61,2.5c.46,1.87-.39,3.85-2.06,4.82-1.67.96-3.81.71-5.2-.63l-2.16,2.26c1.42,1.36,3.3,2.07,5.19,2.07,1.28,0,2.57-.33,3.73-1,2.24-1.3,3.62-3.66,3.74-6.17,2.51-.11,4.87-1.49,6.17-3.73,1.3-2.24,1.31-4.98.15-7.21,2.12-1.35,3.48-3.73,3.48-6.32Z"/>
  <path class="cls-1" d="M107.87,109.47c-.83,1.6-.82,3.56.11,5.18.93,1.61,2.63,2.6,4.43,2.68.08,1.8,1.07,3.5,2.68,4.43,2.06,1.19,4.69.87,6.41-.77l-1.55-1.62c-1,.96-2.53,1.15-3.73.45-1.2-.69-1.8-2.11-1.47-3.45l.44-1.8-1.8.44c-1.35.32-2.76-.28-3.46-1.47-.69-1.2-.51-2.73.45-3.73l1.28-1.33-1.78-.52c-1.33-.39-2.26-1.62-2.26-3.01s.93-2.62,2.25-3.01l1.78-.52-1.28-1.34c-.96-1-1.14-2.53-.45-3.73.69-1.2,2.11-1.8,3.46-1.47l1.8.44-.44-1.8c-.33-1.34.28-2.76,1.47-3.46,1.2-.69,2.74-.5,3.73.45l1.34,1.28.52-1.78c.39-1.33,1.62-2.25,3.01-2.25s2.62.93,3.01,2.25l.52,1.78,1.34-1.28c1-.96,2.53-1.14,3.73-.45,1.2.69,1.8,2.11,1.48,3.46l-.44,1.8,1.8-.44c1.34-.33,2.76.28,3.45,1.47.69,1.2.51,2.73-.45,3.73l-1.28,1.34,1.78.52c1.33.39,2.25,1.62,2.25,3.01s-.93,2.62-2.26,3.01l-1.78.52,1.28,1.33c.96,1,1.14,2.53.45,3.73-.69,1.2-2.11,1.8-3.45,1.47l-1.8-.44.44,1.8c.33,1.35-.28,2.76-1.48,3.46-1.19.7-2.73.51-3.73-.45l-1.55,1.62c1.02.98,2.37,1.48,3.73,1.48.92,0,1.85-.23,2.68-.71,1.61-.93,2.6-2.63,2.68-4.43,1.8-.08,3.5-1.07,4.43-2.68.93-1.61.94-3.58.11-5.18,1.52-.97,2.49-2.68,2.49-4.54s-.98-3.57-2.49-4.54c.83-1.6.82-3.56-.11-5.18-.93-1.61-2.63-2.6-4.43-2.68-.08-1.8-1.07-3.5-2.68-4.43-1.61-.93-3.58-.93-5.18-.1-.97-1.52-2.68-2.5-4.54-2.5s-3.57.98-4.54,2.5c-1.6-.83-3.56-.83-5.18.1-1.61.93-2.6,2.63-2.68,4.43-1.8.08-3.5,1.07-4.43,2.68-.93,1.61-.94,3.57-.11,5.18-1.52.97-2.49,2.68-2.49,4.54s.98,3.56,2.49,4.54Z"/>
  <path class="cls-1" d="M219.57,156.03c0-4.26-2.24-8.17-5.72-10.4,1.9-3.67,1.89-8.17-.25-11.86-2.13-3.69-6.03-5.96-10.15-6.15-.19-4.12-2.45-8.02-6.15-10.15s-8.19-2.15-11.86-.25c-2.23-3.48-6.13-5.72-10.4-5.72s-8.17,2.24-10.4,5.72c-3.67-1.9-8.17-1.88-11.86.25-3.69,2.13-5.96,6.02-6.15,10.15-4.13.19-8.02,2.45-10.15,6.15l4.46,2.57c1.59-2.75,4.84-4.13,7.92-3.38l4.12,1.01-1.01-4.12c-.75-3.08.64-6.33,3.38-7.92,2.74-1.58,6.26-1.16,8.55,1.03l3.06,2.94,1.19-4.07c.89-3.04,3.72-5.17,6.89-5.17s6,2.13,6.89,5.17l1.19,4.07,3.06-2.94c2.29-2.19,5.8-2.62,8.55-1.03,2.75,1.59,4.14,4.84,3.38,7.92l-1.01,4.12,4.12-1.01c3.07-.76,6.33.64,7.92,3.38,1.58,2.75,1.16,6.26-1.03,8.55l-2.93,3.06,4.07,1.19c3.04.89,5.17,3.72,5.17,6.89s-2.12,6-5.17,6.89l-4.07,1.19,2.93,3.06c2.19,2.29,2.61,5.8,1.03,8.55-1.59,2.75-4.85,4.14-7.92,3.38l-4.12-1.01,1.01,4.12c.75,3.08-.64,6.33-3.38,7.92-2.74,1.59-6.26,1.16-8.55-1.03l-3.56,3.71c2.34,2.24,5.43,3.41,8.54,3.41,2.11,0,4.23-.54,6.14-1.64,3.69-2.13,5.96-6.02,6.15-10.15,4.13-.19,8.02-2.45,10.15-6.14,2.13-3.7,2.15-8.2.25-11.86,3.48-2.23,5.72-6.14,5.72-10.4Z"/>
  <path class="cls-1" d="M111.8,200.82c.29,1.19-.24,2.44-1.3,3.05-1.06.61-2.42.45-3.29-.4l-2.32,2.42c1.16,1.11,2.7,1.69,4.24,1.69,1.05,0,2.1-.27,3.05-.82,2.34-1.35,3.52-4.13,2.88-6.75l-3.26.8Z"/>
  <path class="cls-1" d="M91.38,170.76c-1.7.98-2.79,2.72-3.01,4.6-1.88.22-3.61,1.31-4.6,3.01-.98,1.7-1.06,3.75-.31,5.49-1.52,1.13-2.47,2.95-2.47,4.91s.95,3.78,2.47,4.91c-.75,1.74-.67,3.79.31,5.49.98,1.7,2.72,2.79,4.6,3.01.22,1.88,1.32,3.61,3.01,4.6.95.55,2,.82,3.05.82,1.55,0,3.08-.58,4.24-1.69l-2.32-2.42c-.88.85-2.23,1.01-3.29.4-1.06-.61-1.6-1.87-1.31-3.05l.66-2.69-2.68.66c-1.2.29-2.44-.25-3.05-1.3-.61-1.06-.45-2.41.39-3.3l1.92-2-2.66-.77c-1.17-.34-1.99-1.43-1.99-2.65s.82-2.31,1.99-2.65l2.66-.77-1.92-2c-.84-.88-1.01-2.24-.39-3.3.61-1.06,1.85-1.6,3.05-1.3l2.68.66-.66-2.69c-.29-1.19.25-2.44,1.31-3.05s2.41-.45,3.29.4l2.32-2.42c-1.95-1.87-4.95-2.23-7.3-.88Z"/>
</svg>