<?xml version="1.0" encoding="UTF-8"?>
<svg id="Layer_1" data-name="Layer 1" xmlns="http://www.w3.org/2000/svg" viewBox="0 0 283.46 283.46">
  <defs>
    <style>
      .cls-1 {
        fill: #fff;
      }
    </style>
  </defs>
  <path class="cls-1" d="M141.73,8.3C68.16,8.3,8.3,68.15,8.3,141.73s59.86,133.44,133.43,133.44,133.43-59.86,133.43-133.44S215.31,8.3,141.73,8.3ZM118.35,164.75v-26.69c0-.16.13-.25.25-.25.1,0,.2.06.24.18l5.45,19.74-5.68,7.1s-.07.05-.11.05c-.07,0-.14-.06-.14-.14ZM120.27,169.74s.05,0,.07.02l23.11,13.34c.23.13.12.47-.12.47-.02,0-.05,0-.07,0l-19.82-5.16-3.31-8.47c-.04-.1.04-.2.13-.2ZM179.18,139.01v-36.31c0-.22.17-.34.34-.34.14,0,.28.08.32.25l7.41,26.86-7.73,9.66c-.04.05-.1.07-.15.07-.1,0-.2-.08-.2-.2ZM181.79,145.79s.07,0,.1.03l31.44,18.15c.31.18.16.63-.16.63-.03,0-.06,0-.09-.01l-26.97-7.01-4.5-11.52c-.05-.14.05-.27.18-.27ZM180.9,230.22v-73.17l.87,2.23.87,2.21,2.3.6,26.97,7.01c.41.11.84.16,1.27.16,2.25,0,4.23-1.52,4.82-3.71.58-2.18-.37-4.49-2.33-5.62l-31.44-18.15c-.2-.11-.42-.18-.63-.26l7.31-9.14,1.48-1.86-.63-2.29-7.41-26.86c-.6-2.16-2.57-3.67-4.81-3.67-2.76,0-5,2.24-5,5v36.31c0,.23.04.45.07.68l-11.55-1.76-2.35-.36-1.67,1.69-19.56,19.85c-1.42,1.44-1.83,3.57-1.05,5.43.78,1.87,2.59,3.08,4.61,3.08.87,0,1.74-.23,2.5-.67l30.71-17.73v82.93c-10.73,4.11-22.35,6.38-34.51,6.38-7.61,0-15.01-.91-22.12-2.58v-57.94l.64,1.64.64,1.63,1.69.44,19.82,5.16c.3.08.62.12.93.12,1.66,0,3.11-1.12,3.54-2.73.43-1.6-.28-3.3-1.71-4.13l-23.11-13.34c-.15-.08-.31-.13-.46-.19l5.37-6.72,1.09-1.36-.46-1.68-5.45-19.75c-.44-1.59-1.89-2.7-3.54-2.7-2.03,0-3.67,1.65-3.67,3.67v26.69c0,.18.08.33.1.5l-8.54-1.3-1.73-.26-1.23,1.24-14.38,14.59c-1.04,1.06-1.35,2.62-.77,3.99.57,1.37,1.9,2.26,3.39,2.26.64,0,1.28-.17,1.84-.49l22.58-13.04v62.83c-41.01-11.24-71.25-48.82-71.25-93.35,0-53.37,43.42-96.79,96.79-96.79s96.79,43.42,96.79,96.79c0,39.44-23.72,73.42-57.63,88.48ZM174.64,144.76l-31.44,18.15c-.06.03-.12.05-.17.05-.27,0-.47-.35-.24-.58l19.56-19.85,12.23,1.86c.18.03.23.27.07.36ZM115.01,168.98l-23.11,13.34s-.09.04-.13.04c-.2,0-.34-.25-.17-.43l14.38-14.59,8.99,1.37c.13.02.17.2.05.27Z"/>
</svg>