<?xml version="1.0" encoding="UTF-8"?>
<svg id="Layer_1" data-name="Layer 1" xmlns="http://www.w3.org/2000/svg" viewBox="0 0 283.46 283.46">
  <defs>
    <style>
      .cls-1 {
        fill: #fff;
      }
    </style>
  </defs>
  <polygon class="cls-1" points="213.31 140.49 211.25 138.09 200.71 143.49 186.75 135.73 200.59 127.74 211.21 133.02 213.23 130.58 203.75 126.01 213.71 120.28 211.74 117.08 202.02 122.99 202.6 112.5 199.38 113.1 198.9 124.86 185.17 133.13 185.23 117.1 195.09 110.62 193.93 107.59 185.3 113.49 185.3 102.06 181.55 102.09 181.74 113.52 173.01 107.76 171.9 110.8 181.86 117.13 182.18 133.15 168.31 125.11 167.65 113.35 164.42 112.81 165.17 123.28 155.35 117.53 153.43 120.77 163.49 126.33 154.09 131.06 156.14 133.46 166.68 128.01 180.64 135.78 166.8 143.76 156.19 138.53 154.16 140.97 163.64 145.54 153.68 151.26 155.65 154.43 165.37 148.56 164.79 159.05 168.01 158.41 168.49 146.69 182.22 138.42 182.15 152.6 185.51 152.57 185.21 138.39 199.08 146.44 199.74 158.15 202.97 158.74 202.22 148.27 212.04 153.97 213.96 150.78 203.91 145.22 213.31 140.49"/>
  <polygon class="cls-1" points="138.7 151.99 137.97 151.14 134.23 153.05 129.28 150.3 134.19 147.47 137.95 149.34 138.67 148.47 135.31 146.85 138.84 144.82 138.14 143.69 134.69 145.78 134.9 142.06 133.76 142.27 133.59 146.45 128.72 149.38 128.74 143.69 132.24 141.39 131.83 140.32 128.76 142.42 128.77 138.36 127.44 138.37 127.5 142.43 124.41 140.38 124.01 141.46 127.55 143.7 127.66 149.39 122.74 146.53 122.51 142.36 121.36 142.17 121.63 145.89 118.15 143.85 117.46 145 121.03 146.97 117.7 148.64 118.43 149.5 122.16 147.56 127.11 150.32 122.21 153.15 118.44 151.29 117.72 152.16 121.08 153.78 117.55 155.81 118.25 156.93 121.7 154.85 121.49 158.57 122.64 158.34 122.8 154.19 127.67 151.25 127.65 156.28 128.84 156.27 128.73 151.25 133.65 154.1 133.89 158.25 135.03 158.46 134.77 154.75 138.25 156.77 138.93 155.64 135.36 153.66 138.7 151.99"/>
  <path class="cls-1" d="M141.75,8.3c-.36,0-.73,0-1.09,0C67.09,8.89,7.71,69.23,8.3,142.81c.59,73.21,60.33,132.36,133.41,132.36.36,0,.73,0,1.09,0,73.57-.59,132.95-60.93,132.36-134.5-.59-73.21-60.33-132.36-133.41-132.36ZM142.51,238.52c-.26,0-.53,0-.79,0-19.62,0-37.91-5.89-53.2-15.99,4.23-.63,8.16-2.55,11.23-5.56,3.81,3.6,8.79,5.58,14.16,5.57,5.3-.04,10.31-2.13,14.06-5.8,3.81,3.61,8.76,5.49,14.16,5.57,5.3-.04,10.31-2.13,14.06-5.8,3.81,3.61,8.96,5.68,14.16,5.57,5.3-.04,10.31-2.13,14.06-5.8,3.23,3.06,7.3,4.95,11.73,5.43-15.31,10.45-33.76,16.63-53.64,16.79ZM234.72,168.56h-51v6.71h48.79c-.54,1.46-1.12,2.91-1.73,4.34h-63.68v13.42h56.65c-1.17,1.86-2.38,3.68-3.66,5.45h-18.64v6.71h13.29c-3.91,4.5-8.24,8.63-12.91,12.34-1.07.23-2.17.36-3.28.37h-.12c-4.82,0-9.38-2.11-12.51-5.79l-1.54-1.81-1.51,1.83c-3.1,3.77-7.67,5.96-12.54,5.99-4.81,0-9.47-2.07-12.63-5.79l-1.54-1.81-1.51,1.83c-3.1,3.77-7.67,5.96-12.54,5.99h-.13c-4.82,0-9.37-2.11-12.5-5.79l-1.54-1.81-1.51,1.83c-3.1,3.77-7.67,5.96-12.54,5.99h-.13c-4.82,0-9.37-2.11-12.5-5.79l-1.54-1.81-1.51,1.83c-3.1,3.77-7.67,5.96-12.54,6-.95-.01-1.87-.16-2.79-.32-5.14-3.95-9.88-8.41-14.13-13.3h123.85v-6.71H63.39c-1.29-1.77-2.53-3.59-3.69-5.45h100.75v-13.42H52.67c-.61-1.43-1.19-2.88-1.73-4.34h121.15v-6.71H48.75c-2.39-8.29-3.74-17.02-3.81-26.05-.43-53.37,42.64-97.14,96.01-97.57.26,0,.53,0,.79,0,53.01,0,96.35,42.91,96.78,96.01.08,9.58-1.27,18.84-3.81,27.61Z"/>
</svg>