<?xml version="1.0" encoding="UTF-8"?>
<svg id="Layer_1" data-name="Layer 1" xmlns="http://www.w3.org/2000/svg" viewBox="0 0 283.46 283.46">
  <defs>
    <style>
      .cls-1 {
        fill: #fff;
      }
    </style>
  </defs>
  <path class="cls-1" d="M141.73,8.3C68.16,8.3,8.3,68.15,8.3,141.73s59.86,133.44,133.43,133.44,133.43-59.86,133.43-133.44S215.31,8.3,141.73,8.3ZM141.73,238.53c-53.37,0-96.79-43.42-96.79-96.79s43.42-96.79,96.79-96.79,96.79,43.42,96.79,96.79-43.42,96.79-96.79,96.79Z"/>
  <path class="cls-1" d="M121.98,136.08c-1.09.59-1.96,1.51-2.5,2.63-1.4,2.33-2.25,4.95-2.5,7.66-.05,2.84.26,5.67.91,8.43.57,1.96,1.28,3.88,2.08,5.75-4.45,6.67-8.88,13.36-13.35,20.03-.12.45-.13.92-.05,1.37.15,1.13.23,2.28.48,3.4.07.78.75,1.36,1.53,1.31,1.6-.24,3.57-.52,4.42-2.09h0c1.52-2.36,3.2-4.62,4.76-6.95.99-1.43,1.97-2.88,2.97-4.3h0c.86-1.46,1.98-2.77,3.3-3.85,2.51-1.98,5.84-2.13,8.81-2.97h0c3.45-.64,6.65-2.21,9.28-4.54,1.54-1.63,2.91-3.42,4.09-5.33,1.04-1.16,1.85-2.5,2.4-3.97.11-1.05-.26-2.08-.99-2.83-.73-.75-1.76-1.14-2.81-1.05-.99,0-1.92.48-2.5,1.29-1.43,1.97-2.65,4.08-4.07,6.05-1.07,1.21-2.53,2.01-4.12,2.27-1.34.18-2.7.25-4.05.21,2.36-3.31,4.49-6.77,6.8-10.1.87-1.29,1.72-2.6,2.59-3.88.26-.44.62-.8,1.04-1.06,1.6-.93,3.36-1.54,5.19-1.82,1.94-.28,3.88-.57,5.83-.75h0c1.67-.13,3.3-.52,4.84-1.14,1.84-.73,3.51-1.82,4.91-3.22,1.29-1.52,2.48-3.12,3.56-4.8.63-.78,1.08-1.69,1.33-2.66.18-1.32-.44-2.63-1.59-3.32-1.47-.82-3.29-.67-4.61.37-1.69,1.7-2.72,3.96-4.38,5.7h0c-.73.65-1.58,1.17-2.49,1.53-1.15.54-2.4.81-3.67.79-1.11.02-2.22-.04-3.33-.15.55-.96,1.15-1.89,1.82-2.76,1.63-2.34,3.22-4.7,4.79-7.08h0c.49-.77,1.02-1.51,1.61-2.21.33-.14.69-.23,1.04-.28,1.12-.32,2.26-.55,3.42-.67,1.88.04,3.76-.02,5.63-.21,1.67-.12,3.35-.11,5.02-.3,1.71-.19,3.18-1.32,3.79-2.93.42-1.31.19-2.74-.62-3.87-1.01-1.18-2.67-1.61-4.13-1.05-2.9.95-5.95,1.4-9,1.32,2.41-3.3,4.49-6.83,6.85-10.16,1.22-1.55.97-3.79-.57-5.02-1.53-1.23-3.77-1-5.02.52-1.07,1.33-2.06,2.74-2.93,4.22-1.33,2.07-2.69,4.13-3.86,6.29-1.09-2-1.67-4.23-1.71-6.5.11-1.36.24-2.9-.78-3.98h0c-.68-.84-1.66-1.38-2.73-1.49-1.07-.11-2.15.21-2.99.88-1.19,1.14-1.68,2.84-1.27,4.44.38,1.78.9,3.53,1.55,5.23.75,2.03,1.3,4.14,1.66,6.27.05,1.06.27,2.11.65,3.1-.82,1.54-1.88,2.94-2.78,4.43h0c-.7,1.17-1.47,2.29-2.3,3.36-.39.07-.53-.4-.72-.65-.86-1.94-2-3.75-2.68-5.76h0c-1.01-2.32-1.77-4.74-2.3-7.21-.36-2.2-.29-4.45.19-6.62.56-1.81,1.23-3.58,2.01-5.31.25-1.17-.06-2.4-.83-3.32-.55-.64-1.25-1.11-2.05-1.38-1.11-.23-2.26.11-3.07.91-1.13,1.21-1.97,2.67-2.45,4.25-.63,1.59-1.05,3.26-1.23,4.97-.38,3.95.07,7.94,1.34,11.71,1.11,3.82,3.35,7.24,4.09,11.17.4,1.79.56,3.63.48,5.46.04,1.54-.36,3.05-1.14,4.37-3.33,4.92-6.39,10.01-9.74,14.92-.4-.52-.71-1.11-.9-1.74-.59-2.24-.48-4.61.32-6.79.71-1.48,1.51-2.91,2.42-4.27.41-.71.48-1.56.18-2.32-.94-1.92-3.21-2.77-5.18-1.93Z"/>
  <path class="cls-1" d="M119.84,94.79c1.25,1.2,3.21,1.31,4.58.23,1.37-1.07,1.74-3,.87-4.5-.44-.67-1.08-1.19-1.84-1.47-1.16-.21-2.35.18-3.16,1.02-1.34,1.22-1.53,3.27-.44,4.72h0Z"/>
  <polygon class="cls-1" points="102.63 190.7 102.63 190.7 102.63 190.7 102.63 190.7"/>
  <path class="cls-1" d="M102.63,190.7c.48-.65.65-1.47.48-2.25-.15-1.08-.22-2.17-.21-3.25h0c-.09-1.35.01-2.71-.03-4.06-.03-2.12.21-4.23.34-6.35.03-2.16.19-4.31.09-6.46-.1-2.61.03-5.21.03-7.81.17-2.9.34-5.79.35-8.69-.01-1.3.17-2.58.16-3.87-.06-1.92.46-3.82.25-5.74h0c1.02-.92,2.17-1.68,3.4-2.28,1.29-.72,2.63-1.36,3.86-2.19,2.2-1.46,4.18-3.24,5.87-5.26,1.96-2.93,4.05-5.77,5.93-8.76.58-.79.88-1.76.85-2.74-.22-1.69-1.54-3.03-3.23-3.26-1.21-.08-2.4.38-3.21,1.28-.83,1.05-1.6,2.15-2.3,3.3-1.13,1.81-2.34,3.57-3.53,5.34-.79,1.2-1.77,2.25-2.92,3.11-1.2,1.03-2.63,1.77-4.16,2.17.11-1.99.34-3.98.32-5.97.16-2.84.57-5.67.56-8.53,3.55-2.76,7.89-4.34,11.25-7.38,1.36-1.37,2.55-2.9,3.55-4.56.64-.76,1.08-1.68,1.27-2.66.22-1.93-1.11-3.69-3.01-4.02-1.16-.13-2.31.27-3.15,1.07-.95,1.34-1.83,2.73-2.64,4.16-1.34,1.81-3.16,3.21-5.26,4.05-.33.18-.71.28-1.09.26.47-3.86.37-7.78.51-11.67h0c-.03-.96.09-1.92.33-2.85.37-1.15.18-2.41-.52-3.4-.7-.98-1.83-1.58-3.04-1.61-1.21.15-2.29.83-2.94,1.85-.59.93-.84,2.05-.7,3.14.05,1.99.06,3.98-.08,5.97.03,1.43-.03,2.85-.19,4.27-1.14-1.24-2.08-2.64-3.18-3.92h0c-.92-1.45-2.03-2.78-3.3-3.94-1.68-1.05-3.89-.61-5.03,1.02-1.07,1.65-.88,3.8.46,5.23,2.37,2.29,4.59,4.73,6.65,7.31.81,1.11,1.56,2.26,2.24,3.44.53.92.74,1.99.63,3.04-.07,2.13-.14,4.26-.25,6.39,0,1.34-.07,2.69-.22,4.02-.98-.71-1.88-1.53-2.68-2.43-1.99-1.79-3.76-3.8-5.3-5.98-.71-1.24-1.06-2.65-.99-4.07.08-.82,0-1.64-.22-2.43-.53-1.14-1.55-1.99-2.77-2.31-1.22-.32-2.52-.09-3.55.65-.72.7-1.18,1.62-1.31,2.62-.09,1.59.17,3.18.74,4.66.54,2.05,1.47,3.97,2.73,5.67,1.23,1.72,2.63,3.32,4.17,4.78,1.97,1.62,3.76,3.44,5.34,5.44.99,1.31,1.8,2.75,2.4,4.28.24,1.56.3,3.15.18,4.73-.16,2.52-.2,5.05-.26,7.57.12,1.91-.01,3.83-.41,5.7-1.07-.81-2.07-1.68-3.01-2.64-1.52-1.38-3.14-2.66-4.84-3.81-2.48-1.88-4.46-4.35-5.74-7.19-.79-2-1.1-4.17-.88-6.31.28-1.06.37-2.15.26-3.23-.29-1.1-1.09-1.98-2.15-2.38-1.11-.39-2.31-.39-3.42,0-1.17.53-2.05,1.56-2.4,2.8.08,2.09.27,4.17.57,6.24.34,2.45,1.2,4.8,2.53,6.89,2.2,3.71,5.05,6.98,8.42,9.67,1.8,1.4,3.48,2.96,5.01,4.66,1.9,2.24,3.37,4.81,4.34,7.58.79,3.61.97,7.32.52,10.99-.23,1.78-.36,3.57-.65,5.34h0c-.63,4.48-2.31,8.75-4.91,12.46-.72,1.14-1.55,2.21-2.19,3.4h0c-.5,1.1-.68,2.31-.51,3.51.07,1.25.76,2.39,1.84,3.03.56.2,1.17.23,1.75.1,1.06-.64,1.91-1.57,2.46-2.69,1.11-1.48,1.99-3.12,3.12-4.58,2.21-3.22,4.33-6.5,6.63-9.66Z"/>
  <path class="cls-1" d="M194.07,151.66c-.85.54-1.74,1.01-2.66,1.42-2.98,1.38-6.01,2.69-9,4.07h0c-.91.54-1.89.94-2.92,1.18-.15-1.22-.05-2.46.27-3.65.46-2.07,1.44-3.98,2.86-5.56,1.02-.99,1.69-2.27,1.94-3.67.06-1.13-.42-2.23-1.29-2.96-.88-.73-2.05-1-3.15-.72-1.5.54-2.71,1.67-3.35,3.12-1.47,2.36-2.54,4.95-3.16,7.66-.28,1.5-.63,2.98-.8,4.5h0c-.14,1.54-.37,3.07-.67,4.58-.13.72-.93.88-1.49,1.15-4.17,2.08-8.32,4.24-12.62,6.03h0c-.07-1.93.21-3.85.82-5.69.85-2.13,2.04-4.1,3.52-5.84,1.19-1.59,2.22-3.28,3.42-4.87.82-.88,1.22-2.08,1.08-3.28-.34-1.3-1.3-2.34-2.56-2.78-1.27-.44-2.67-.23-3.74.58-1.48,1.7-2.81,3.54-3.96,5.49-1.76,2.53-3.25,5.22-4.47,8.05-1.05,3-1.82,6.09-2.31,9.24-.01,1.05-.27,2.09-.73,3.03-.8.58-1.8.81-2.63,1.36-1.91,1.18-3.9,2.22-5.95,3.13-3.21,1.68-6.51,3.19-9.88,4.51-3.78,1.56-7.5,3.26-11.24,4.89-1.55.72-3.11,1.42-4.7,2.05h0c-1.91,1-3.91,1.8-5.98,2.38-.85.31-1.86.3-2.51,1.01-1.16,1.44-2.17,2.98-3.04,4.61-1.51,2.36-3.04,4.71-4.59,7.04-1.4,1.9-2.7,3.87-3.89,5.91-.09.46-.01.93.22,1.33.1.18.17.38.21.58.41.5.97.86,1.61,1.04,1.41.36,2.91.3,4.29-.17.53-.27,1-.65,1.37-1.12,1.42-1.97,2.75-3.99,4.09-6.01,1.43-1.99,3.18-3.72,5.18-5.13,3.32-2.23,6.82-4.22,10.45-5.92,1.88-1.03,3.94-1.72,6.07-2.04,3.4-.4,6.86-.02,10.1,1.13,4.61,1.28,8.54,4.2,13.09,5.64h0c3.59,1.26,7.4,1.77,11.2,1.52,1.79-.22,3.56-.58,5.29-1.09,1.1-.3,2.14-.82,3.03-1.54,1.42-1.05,1.94-2.93,1.26-4.56-.68-1.62-2.37-2.58-4.11-2.32-1,.26-1.95.66-2.83,1.2-1.24.45-2.5.81-3.79,1.07-2.19.46-4.47.41-6.64-.15-1.16-.21-2.31-.49-3.44-.85-1.43-.62-2.8-1.41-4.05-2.33-2.29-1.43-4.56-2.9-6.94-4.19.28-.19.56-.39.85-.58,2.83-1.77,6.17-2.44,9.04-4.13h0c1.85-.85,3.76-1.57,5.71-2.17,1.31-.3,2.66-.33,3.97-.07,1.65.3,3.26.78,4.81,1.44,2.38.83,4.52,2.25,6.95,2.98,2,.66,4.05,1.14,6.13,1.45,1.55.31,3.15.36,4.72.14,1.67-.27,3.21-1.03,4.43-2.21.79-.79,1.23-1.88,1.19-3-.36-1.71-1.69-3.04-3.4-3.4-1.16-.1-2.32.07-3.4.52-1.31.47-2.7.65-4.09.54-1.6-.18-3.15-.58-4.63-1.21-2.09-.97-4.21-1.89-6.2-3.05.59-.29,1.17-.6,1.74-.93,1.65-.89,3.36-1.7,5.1-2.42,1.25-.59,2.55-1.1,3.87-1.51.85-.12,1.71-.05,2.53.21,3.59.71,7.11,1.76,10.51,3.14,1.66.56,3.34,1.76,5.17,1.13h0c1.55-.56,2.68-1.9,2.98-3.52h0c.15-1.63-.84-3.15-2.4-3.67-1.6-.5-3.27-.77-4.86-1.31-1.34-.45-2.73-.75-4.11-1.07.84-.42,1.68-.84,2.52-1.25,2.18-1.11,4.4-2.15,6.67-3.07,1.37-.44,2.51-1.42,3.16-2.71.59-1.22.35-2.68-.6-3.66-1.22-1.2-3.07-1.49-4.59-.72Z"/>
  <path class="cls-1" d="M74.38,127.55c.94.32,1.97.17,2.78-.4.82-.74,1.15-1.88.87-2.95-.31-.92-1.1-1.61-2.05-1.81-.79-.06-1.57.22-2.14.76-.65.59-.97,1.47-.87,2.34.11.88.63,1.65,1.41,2.06Z"/>
  <path class="cls-1" d="M177.35,190.76c-.77.2-1.41.75-1.72,1.49-.09.54-.08,1.1.04,1.64.11.73.54,1.37,1.17,1.75.63.38,1.4.46,2.09.21.83-.43,1.4-1.23,1.53-2.15.13-.92-.19-1.85-.87-2.49-.63-.5-1.46-.67-2.23-.46Z"/>
  <path class="cls-1" d="M155.89,183.57c-1.1.4-1.85,1.41-1.92,2.57.06.75.34,1.47.82,2.05.79.73,1.86,1.06,2.92.91,1.06-.16,1.99-.78,2.54-1.7.37-.78.38-1.68.03-2.47-.35-.79-1.02-1.39-1.85-1.64h0c-.85-.24-1.77-.15-2.55.28Z"/>
  <path class="cls-1" d="M87.04,143.15c.66.63,1.58.91,2.48.76.9-.15,1.68-.71,2.1-1.52.52-.73.68-1.66.41-2.52-.27-.86-.93-1.54-1.78-1.83-1.42-.36-2.91.23-3.7,1.46-.65,1.19-.45,2.67.5,3.65h0Z"/>
  <path class="cls-1" d="M71.29,158.3c-.81.67-1.43,1.53-1.81,2.5-.31,1.05-.15,2.18.43,3.11.57.81,1.36,1.44,2.27,1.81,1.14.38,2.38.28,3.44-.28,1.24-.7,2.08-1.93,2.28-3.33.21-1.41-.25-2.83-1.23-3.84-1.58-1.27-3.82-1.25-5.38.04Z"/>
  <path class="cls-1" d="M142.8,205.57c-.95.86-1.61,2-1.89,3.25-.23,1.57.48,3.13,1.83,3.98.92.53,1.99.77,3.05.68,1.44-.29,2.67-1.24,3.32-2.56.68-1.34.59-2.95-.23-4.22-1.39-1.95-4.07-2.45-6.07-1.13Z"/>
  <path class="cls-1" d="M87.94,191.88c-.52-1.64-.9-3.33-1.1-5.04h0c-.21-2.31-.82-4.57-.94-6.89-.21-1.47-.24-2.97-.09-4.44,1.34-.86,2.13-2.35,2.1-3.93-.16-1.43-.94-2.73-2.13-3.54-.87-.59-1.93-.85-2.98-.73-1.6.15-3.03,1.05-3.86,2.43-.82,1.38-.94,3.06-.31,4.54.37.72.87,1.36,1.47,1.9.01.73-.16,1.44-.21,2.16h0c-.1,2.36.02,4.71.35,7.05.48,3.13.87,6.27,1.58,9.36h0c.17.97.59,1.88,1.2,2.65.24.17.47.34.71.5.71-.82,1.28-1.74,1.91-2.62.77-1.12,1.62-2.21,2.29-3.4h0Z"/>
  <path class="cls-1" d="M134.35,200.34c-1.13-.92-2.58-1.34-4.03-1.16h0c-1.44.64-2.54,1.86-3.03,3.36-.15.5-.72.51-1.12.7-2.04.76-4.08,1.52-6.12,2.3h0c-1.69.5-3.4.9-5.14,1.2-1.5.26-3.03.42-4.55.46-1.26,1.75-2.41,3.58-3.46,5.47.02.42.3.79.71.91.93.08,1.87.09,2.81.05,1.36-.16,2.7-.4,4.02-.73,3.15-.75,6.34-1.3,9.43-2.27,1.42-.38,2.79-.97,4.05-1.74.4-.17.83-.61,1.29-.39.67.33,1.4.51,2.15.53,2.63-.25,4.71-2.34,4.95-4.98-.12-1.45-.83-2.79-1.95-3.71Z"/>
</svg>