<?xml version="1.0" encoding="UTF-8"?>
<svg id="Layer_1" data-name="Layer 1" xmlns="http://www.w3.org/2000/svg" viewBox="0 0 283.46 283.46">
  <defs>
    <style>
      .cls-1 {
        fill: #fff;
      }
    </style>
  </defs>
  <path class="cls-1" d="M141.73,8.3C68.16,8.3,8.3,68.16,8.3,141.73s59.86,133.44,133.43,133.44,133.43-59.86,133.43-133.44S215.31,8.3,141.73,8.3ZM141.73,238.52c-53.37,0-96.79-43.42-96.79-96.79s43.42-96.79,96.79-96.79,96.79,43.42,96.79,96.79-43.42,96.79-96.79,96.79Z"/>
  <g>
    <path class="cls-1" d="M206.81,216.1v-7.65h4.04v3.56c1.03-1.11,2.03-2.24,3.01-3.4v-14.57c0-2.98-2.42-5.4-5.4-5.4h-6.69c-2.98,0-5.4,2.42-5.4,5.4v20.65h-4.04v-20.65c0-5.21,4.24-9.44,9.44-9.44h6.69c5.21,0,9.44,4.24,9.44,9.44v9.42"/>
    <polyline class="cls-1" points="199.44 222.44 199.44 208.45 203.49 208.45 203.49 219.12"/>
    <polyline class="cls-1" points="175.11 236.09 175.11 208.45 179.16 208.45 179.16 234.45"/>
    <polyline class="cls-1" points="167.75 238.52 167.75 208.45 171.79 208.45 171.79 237.26"/>
    <polyline class="cls-1" points="143.42 242.14 143.42 208.45 147.46 208.45 147.46 241.99"/>
    <polyline class="cls-1" points="136.05 242 136.05 208.45 140.1 208.45 140.1 242.14"/>
    <polyline class="cls-1" points="111.72 237.28 111.72 208.45 115.77 208.45 115.77 238.53"/>
    <polyline class="cls-1" points="104.36 234.47 104.36 208.45 108.4 208.45 108.4 236.11"/>
    <polyline class="cls-1" points="80.03 219.17 80.03 208.45 84.07 208.45 84.07 222.48"/>
    <polyline class="cls-1" points="72.66 212.07 72.66 208.45 76.71 208.45 76.71 216.15"/>
    <path class="cls-1" d="M65.56,203.47v-9.42c0-5.21,4.24-9.44,9.44-9.44h6.69c5.21,0,9.44,4.24,9.44,9.44v20.65h-4.04v-20.65c0-2.98-2.42-5.4-5.4-5.4h-6.69c-2.98,0-5.4,2.42-5.4,5.4v14.57"/>
    <path class="cls-1" d="M122.82,214.7h-4.04v-20.65c0-2.98-2.42-5.4-5.4-5.4h-6.69c-2.98,0-5.4,2.42-5.4,5.4v20.65h-4.04v-20.65c0-5.21,4.24-9.44,9.44-9.44h6.69c5.21,0,9.44,4.24,9.44,9.44v20.65Z"/>
    <path class="cls-1" d="M104.03,114.69h-2.14c-.64,0-1.17-.52-1.17-1.17v-1.91h20.26v1.91c0,.64-.52,1.17-1.17,1.17h-15.78Z"/>
    <rect class="cls-1" x="105.01" y="116.65" width="11.69" height="31.21"/>
    <path class="cls-1" d="M154.52,214.7h-4.04v-20.65c0-2.98-2.42-5.4-5.4-5.4h-6.69c-2.98,0-5.4,2.42-5.4,5.4v20.65h-4.04v-20.65c0-5.21,4.24-9.44,9.44-9.44h6.69c5.21,0,9.44,4.24,9.44,9.44v20.65Z"/>
    <rect class="cls-1" x="135.89" y="116.65" width="11.69" height="31.21"/>
    <path class="cls-1" d="M150.69,114.69h-17.92c-.64,0-1.17-.52-1.17-1.17v-1.91h20.26v1.91c0,.64-.52,1.17-1.17,1.17Z"/>
    <path class="cls-1" d="M186.21,214.7h-4.04v-20.65c0-2.98-2.42-5.4-5.4-5.4h-6.69c-2.98,0-5.4,2.42-5.4,5.4v20.65h-4.04v-20.65c0-5.21,4.24-9.44,9.44-9.44h6.69c5.21,0,9.44,4.24,9.44,9.44v20.65Z"/>
    <rect class="cls-1" x="166.77" y="116.65" width="11.69" height="31.21"/>
    <path class="cls-1" d="M182.74,113.52c0,.64-.52,1.17-1.17,1.17h-17.92c-.64,0-1.17-.52-1.17-1.17v-1.91h20.26v1.91Z"/>
    <polygon class="cls-1" points="183.72 109.66 161.5 109.66 152.84 109.66 130.62 109.66 121.96 109.66 99.75 109.66 97.04 109.66 141.73 87.54 186.42 109.66 183.72 109.66"/>
    <path class="cls-1" d="M78.34,163.02c-5.37,0-9.75,4.37-9.75,9.75s4.37,9.75,9.75,9.75,9.75-4.37,9.75-9.75-4.37-9.75-9.75-9.75ZM78.27,178.53c-3.14,0-5.7-2.56-5.7-5.7s2.56-5.7,5.7-5.7,5.7,2.56,5.7,5.7-2.56,5.7-5.7,5.7Z"/>
    <path class="cls-1" d="M141.73,163.02c-5.37,0-9.75,4.37-9.75,9.75s4.37,9.75,9.75,9.75,9.75-4.37,9.75-9.75-4.37-9.75-9.75-9.75ZM141.66,178.53c-3.14,0-5.7-2.56-5.7-5.7s2.56-5.7,5.7-5.7,5.7,2.56,5.7,5.7-2.56,5.7-5.7,5.7Z"/>
    <path class="cls-1" d="M205.12,163.02c-5.37,0-9.75,4.37-9.75,9.75s4.37,9.75,9.75,9.75,9.75-4.37,9.75-9.75-4.37-9.75-9.75-9.75ZM205.05,178.53c-3.14,0-5.7-2.56-5.7-5.7s2.56-5.7,5.7-5.7,5.7,2.56,5.7,5.7-2.56,5.7-5.7,5.7Z"/>
    <path class="cls-1" d="M173.43,163.02c-5.37,0-9.75,4.37-9.75,9.75s4.37,9.75,9.75,9.75,9.75-4.37,9.75-9.75-4.37-9.75-9.75-9.75ZM173.36,178.53c-3.14,0-5.7-2.56-5.7-5.7s2.56-5.7,5.7-5.7,5.7,2.56,5.7,5.7-2.56,5.7-5.7,5.7Z"/>
    <path class="cls-1" d="M110.04,163.02c-5.37,0-9.75,4.37-9.75,9.75s4.37,9.75,9.75,9.75,9.75-4.37,9.75-9.75-4.37-9.75-9.75-9.75ZM109.97,178.53c-3.14,0-5.7-2.56-5.7-5.7s2.56-5.7,5.7-5.7,5.7,2.56,5.7,5.7-2.56,5.7-5.7,5.7Z"/>
  </g>
</svg>