<?xml version="1.0" encoding="UTF-8"?>
<svg id="Layer_1" data-name="Layer 1" xmlns="http://www.w3.org/2000/svg" viewBox="0 0 283.46 283.46">
  <defs>
    <style>
      .cls-1 {
        fill: #fff;
      }
    </style>
  </defs>
  <path class="cls-1" d="M141.73,8.3C68.16,8.3,8.3,68.16,8.3,141.73s59.86,133.43,133.43,133.43,133.43-59.86,133.43-133.43S215.31,8.3,141.73,8.3ZM141.67,121.77c-3.37,0-6.1-2.74-6.1-6.1s2.74-6.1,6.1-6.1,6.1,2.74,6.1,6.1-2.74,6.1-6.1,6.1ZM145.26,238.43v-111.55c3.87-1.24,6.86-4.38,7.86-8.36h20.19c1,2.6,3.32,4.54,6.14,5.01l-18.65,56.46h-6.64l1.95,3.89c4.77,9.54,14.33,15.46,24.96,15.46s20.19-5.92,24.96-15.46l1.95-3.89h-6.64l-18.69-56.56c3.52-.85,6.14-4,6.14-7.77,0-4.42-3.59-8.01-8.01-8.01-3.4,0-6.3,2.14-7.46,5.14h-20.19c-1.29-5.14-5.91-8.97-11.45-8.97s-10.16,3.83-11.45,8.97h-20.37c-1.16-3-4.05-5.14-7.46-5.14-4.42,0-8.01,3.59-8.01,8.01,0,3.87,2.76,7.11,6.41,7.85l-18.66,56.48h-6.65l1.95,3.89c4.77,9.54,14.33,15.46,24.96,15.46s20.19-5.92,24.96-15.46l1.95-3.89h-6.64l-18.66-56.48c2.7-.55,4.88-2.46,5.86-4.98h20.37c1,3.97,3.99,7.11,7.86,8.36v111.55c-51.69-1.93-93.15-44.55-93.15-96.7s43.42-96.79,96.79-96.79,96.79,43.42,96.79,96.79-41.53,94.83-93.27,96.7ZM180.77,118.29c-1.45,0-2.63-1.18-2.63-2.63s1.18-2.63,2.63-2.63,2.63,1.18,2.63,2.63-1.18,2.63-2.63,2.63ZM195.66,179.99h-29.18l14.59-44.17,14.59,44.17ZM99.77,115.66c0-1.45,1.18-2.63,2.63-2.63s2.63,1.18,2.63,2.63-1.18,2.63-2.63,2.63-2.63-1.18-2.63-2.63ZM116.99,179.99h-29.18l14.59-44.17,14.59,44.17Z"/>
</svg>